<?xml version="1.0" encoding="UTF-8"?>
<svg width="655px" height="177px" viewBox="0 0 655 177" version="1.1" xmlns="http://www.w3.org/2000/svg" xmlns:xlink="http://www.w3.org/1999/xlink">
    <!-- Generator: Sketch 44.1 (41455) - http://www.bohemiancoding.com/sketch -->
    <title>logo</title>
    <desc>Created with Sketch.</desc>
    <defs>
        <filter x="-16.1%" y="-14.8%" width="131.6%" height="136.6%" filterUnits="objectBoundingBox" id="filter-1">
            <feOffset dx="0" dy="2" in="SourceAlpha" result="shadowOffsetOuter1"></feOffset>
            <feGaussianBlur stdDeviation="7.5" in="shadowOffsetOuter1" result="shadowBlurOuter1"></feGaussianBlur>
            <feColorMatrix values="0 0 0 0 0.855229592   0 0 0 0 0.855229592   0 0 0 0 0.855229592  0 0 0 0.5 0" type="matrix" in="shadowBlurOuter1" result="shadowMatrixOuter1"></feColorMatrix>
            <feMerge>
                <feMergeNode in="shadowMatrixOuter1"></feMergeNode>
                <feMergeNode in="SourceGraphic"></feMergeNode>
            </feMerge>
        </filter>
        <polygon id="path-2" points="59.2397913 144.446607 3.53948982 143.261261 77.399323 64.8357179 79.8817044 56.5135006 83.1946054 50.8349208 116.573688 7.88221759 122.814056 3.53360868 133.803527 4.05069018 142.824528 7.88454678 145.242671 14.0941833 145.38262 20.5926401 130.639752 32.5786827 94.792053 69.2984574 91.7567566 72.1866605"></polygon>
        <filter x="-4.9%" y="-3.5%" width="109.9%" height="109.9%" filterUnits="objectBoundingBox" id="filter-3">
            <feOffset dx="0" dy="2" in="SourceAlpha" result="shadowOffsetOuter1"></feOffset>
            <feGaussianBlur stdDeviation="2" in="shadowOffsetOuter1" result="shadowBlurOuter1"></feGaussianBlur>
            <feColorMatrix values="0 0 0 0 0.760655825   0 0 0 0 0.760655825   0 0 0 0 0.760655825  0 0 0 0.5 0" type="matrix" in="shadowBlurOuter1"></feColorMatrix>
        </filter>
    </defs>
    <g id="Page-1" stroke="none" stroke-width="1" fill="none" fill-rule="evenodd">
        <g id="logo" transform="translate(9.000000, 13.000000)">
            <polygon id="Path-6" fill="#3DE5F6" transform="translate(308.925921, 131.650269) rotate(-2.000000) translate(-308.925921, -131.650269) " points="6.37952936 131.955732 605.505424 122.344807 617.425921 134.455732 462.101179 139.455732 0.42592111 140.955732"></polygon>
            <polygon id="Path-6-Copy" fill="#E83DF6" transform="translate(220.627247, 123.202108) rotate(-2.000000) translate(-220.627247, -123.202108) " points="60.2174531 123.377784 384.127247 116.702108 377.104051 123.729135 296.75869 128.648054 57.1272469 129.702108"></polygon>
            <polygon id="Path-6-Copy-2" fill="#FC072B" transform="translate(128.226847, 118.202108) rotate(-2.000000) translate(-128.226847, -118.202108) " points="32.1134754 118.304419 226.191789 114.416621 221.983673 118.509039 173.842825 121.373732 30.2619043 121.987595"></polygon>
            <text id="Webscrape" font-family="BungeeShade-Regular, Bungee Shade" font-size="72" font-weight="normal" fill="#626565">
                <tspan x="130" y="111">Webscrape</tspan>
            </text>
            <g id="Group" filter="url(#filter-1)" transform="translate(4.000000, 0.000000)">
                <g id="Path-Copy">
                    <use fill="black" fill-opacity="1" filter="url(#filter-3)" xlink:href="#path-2"></use>
                    <use fill="#C3C1C1" fill-rule="evenodd" xlink:href="#path-2"></use>
                </g>
                <polygon id="Path" stroke="#CFCFCF" stroke-width="0.09" fill="#D8D8D8" points="58.1060485 144.953873 0 143.261261 73.8598332 64.8357179 76.3422146 56.5135006 79.6551156 50.8349208 113.034199 7.88221759 119.274566 3.53360868 130.264037 4.05069018 139.285039 7.88454678 141.703181 14.0941833 141.84313 20.5926401 127.100262 32.5786827 91.2525632 69.2984574 88.2172668 72.1866605"></polygon>
                <path d="M78.4801429,65.8470693 L89.3773028,73.9892451 C105.440498,65.4865039 116.600422,58.6054917 122.857076,53.3462084 C129.11373,48.0869252 135.641734,41.278167 142.441089,32.9199338 C145.078758,30.5031856 146.711057,28.595549 147.337986,27.1970241 C147.964914,25.7984992 148.557972,24.0428974 149.117159,21.9302188 L150.984459,15.8856355 C151.711065,13.1348121 151.883346,11.3139954 151.5013,10.4231854 C151.119254,9.5323753 149.590562,8.1904682 146.915223,6.39746408 C146.380039,5.70821022 145.982631,5.21021159 145.722999,4.90346818 C144.234478,3.14484979 142.862239,1.93965864 141.606283,1.28789474 C140.021725,0.465606955 137.682044,0.0363087092 134.587239,0 L124.954215,2.82424634 C121.507353,4.55658406 119.143457,6.0529265 117.862527,7.31327366 C116.581598,8.57362082 114.414197,11.5234959 111.360325,16.1628989 L99.1943006,29.9900633 L84.7489325,49.1656517 C82.9141842,52.7112631 81.1453312,55.8235754 79.4423735,58.5025885 C77.7394158,61.1816016 77.4186723,63.6297618 78.4801429,65.8470693 Z" id="Path-2-Copy" fill="#2F2F33" opacity="0.670516304"></path>
                <path d="M74.9406531,65.8470693 L89.9647886,74.0557478 C103.276666,65.5086715 113.060932,58.6054917 119.317586,53.3462084 C125.57424,48.0869252 132.102244,41.278167 138.901599,32.9199338 C141.539268,30.5031856 143.171567,28.595549 143.798496,27.1970241 C144.425425,25.7984992 145.018483,24.0428974 145.57767,21.9302188 L147.444969,15.8856355 C148.171576,13.1348121 148.343856,11.3139954 147.96181,10.4231854 C147.579765,9.5323753 146.051072,8.1904682 143.375733,6.39746408 C142.840549,5.70821022 142.443141,5.21021159 142.183509,4.90346818 C140.694988,3.14484979 139.322749,1.93965864 138.066793,1.28789474 C136.482235,0.465606955 134.142554,0.0363087092 131.047749,0 L121.414725,2.82424634 C117.967863,4.55658406 115.603967,6.0529265 114.323038,7.31327366 C113.365644,8.25528317 106.15971,11.7885275 94.3011341,26.9092583 C86.3954168,36.9897454 82.0315196,44.4085432 81.2094427,49.1656517 C79.3746943,52.7112631 77.6058413,55.8235754 75.9028837,58.5025885 C74.199926,61.1816016 73.8791825,63.6297618 74.9406531,65.8470693 Z" id="Path-2" fill="#2F2F33"></path>
                <ellipse id="Oval" stroke="#FFFFFF" fill="#737373" cx="129.211012" cy="13.8271644" rx="3.96324692" ry="3.99451415"></ellipse>
                <ellipse id="Oval-Copy" stroke="#FFFFFF" fill="#737373" cx="88.9110026" cy="60.532253" rx="3.96324692" ry="3.99451415"></ellipse>
            </g>
        </g>
    </g>
</svg>